<?xml version="1.0" encoding="UTF-8"?>
<!-- Do not edit this file with editors other than draw.io -->
<!DOCTYPE svg PUBLIC "-//W3C//DTD SVG 1.1//EN" "http://www.w3.org/Graphics/SVG/1.1/DTD/svg11.dtd">
<svg xmlns="http://www.w3.org/2000/svg" style="background: transparent; background-color: transparent; color-scheme: light dark;" xmlns:xlink="http://www.w3.org/1999/xlink" version="1.1" width="11px" height="11px" viewBox="-0.5 -0.5 11 11" content="&lt;mxfile host=&quot;app.diagrams.net&quot; agent=&quot;Mozilla/5.0 (Macintosh; Intel Mac OS X 10_15_7) AppleWebKit/537.36 (KHTML, like Gecko) Chrome/133.0.0.0 Safari/537.36&quot; version=&quot;26.1.0&quot;&gt;&#10;  &lt;diagram name=&quot;Page-1&quot; id=&quot;7R7dXJzzPMxcGD8CXou4&quot;&gt;&#10;    &lt;mxGraphModel dx=&quot;599&quot; dy=&quot;348&quot; grid=&quot;1&quot; gridSize=&quot;10&quot; guides=&quot;1&quot; tooltips=&quot;1&quot; connect=&quot;1&quot; arrows=&quot;1&quot; fold=&quot;1&quot; page=&quot;1&quot; pageScale=&quot;1&quot; pageWidth=&quot;850&quot; pageHeight=&quot;1100&quot; math=&quot;0&quot; shadow=&quot;0&quot;&gt;&#10;      &lt;root&gt;&#10;        &lt;mxCell id=&quot;0&quot; /&gt;&#10;        &lt;mxCell id=&quot;1&quot; parent=&quot;0&quot; /&gt;&#10;        &lt;mxCell id=&quot;6jrlqB9jLRZcqdPse1mh-9&quot; value=&quot;&quot; style=&quot;sketch=0;points=[[0,0,0],[0.25,0,0],[0.5,0,0],[0.75,0,0],[1,0,0],[0,1,0],[0.25,1,0],[0.5,1,0],[0.75,1,0],[1,1,0],[0,0.25,0],[0,0.5,0],[0,0.75,0],[1,0.25,0],[1,0.5,0],[1,0.75,0]];outlineConnect=0;fontColor=#232F3E;fillColor=#C925D1;strokeColor=#ffffff;dashed=0;verticalLabelPosition=bottom;verticalAlign=top;align=center;html=1;fontSize=12;fontStyle=0;aspect=fixed;shape=mxgraph.aws4.resourceIcon;resIcon=mxgraph.aws4.cloud_development_kit;&quot; vertex=&quot;1&quot; parent=&quot;1&quot;&gt;&#10;          &lt;mxGeometry x=&quot;350&quot; y=&quot;270&quot; width=&quot;10&quot; height=&quot;10&quot; as=&quot;geometry&quot; /&gt;&#10;        &lt;/mxCell&gt;&#10;      &lt;/root&gt;&#10;    &lt;/mxGraphModel&gt;&#10;  &lt;/diagram&gt;&#10;&lt;/mxfile&gt;&#10;"><defs/><g><g data-cell-id="0"><g data-cell-id="1"><g data-cell-id="6jrlqB9jLRZcqdPse1mh-9"><g><path d="M 0 0 L 10 0 L 10 10 L 0 10 Z" fill="#c925d1" stroke="none" pointer-events="all" style="fill: light-dark(rgb(201, 37, 209), rgb(255, 124, 255));"/><path d="M 8.98 4.92 C 8.98 5.9 8.31 6.26 7.91 6.39 L 7.82 6.12 C 8.22 5.99 8.7 5.68 8.7 4.92 C 8.7 3.95 7.91 3.71 7.57 3.65 C 7.49 3.64 7.44 3.57 7.45 3.49 L 7.45 3.49 C 7.42 3.05 7.22 2.73 6.91 2.64 C 6.65 2.56 6.37 2.67 6.2 2.9 C 6.17 2.94 6.12 2.96 6.06 2.95 C 6.01 2.95 5.97 2.91 5.95 2.86 C 5.83 2.53 5.66 2.25 5.45 2.03 C 5.18 1.75 4.45 1.17 3.41 1.62 C 2.81 1.87 2.34 2.61 2.34 3.29 C 2.34 3.37 2.34 3.44 2.35 3.52 C 2.36 3.59 2.32 3.66 2.25 3.67 C 1.89 3.76 1.3 4.05 1.3 4.91 C 1.3 4.93 1.3 4.96 1.3 4.99 C 1.33 5.54 1.73 6.02 2.28 6.14 L 2.22 6.42 C 1.55 6.26 1.05 5.68 1.02 5 C 1.02 4.97 1.02 4.94 1.02 4.91 C 1.02 3.92 1.68 3.56 2.06 3.43 C 2.06 3.39 2.06 3.34 2.06 3.29 C 2.06 2.49 2.59 1.66 3.3 1.35 C 4.13 1 5.01 1.18 5.65 1.82 C 5.85 2.03 6.01 2.27 6.13 2.55 C 6.37 2.35 6.69 2.28 6.98 2.37 C 7.39 2.49 7.67 2.87 7.73 3.39 C 8.13 3.49 8.98 3.82 8.98 4.92 Z M 7.4 8.05 L 6.42 8.6 L 6.42 7.37 L 7.4 6.81 Z M 4.86 8.05 L 3.87 8.61 L 3.87 7.37 L 4.86 6.81 Z M 3.73 7.12 L 2.75 6.57 L 3.73 6.01 L 4.71 6.56 Z M 2.6 6.81 L 3.59 7.37 L 3.59 8.61 L 2.6 8.04 Z M 5 3.89 L 5.98 4.43 L 5 4.98 L 4.02 4.44 Z M 5.29 6.56 L 6.27 6.01 L 7.26 6.57 L 6.28 7.13 Z M 5.14 6.81 L 6.14 7.37 L 6.14 8.6 L 5.14 8.04 Z M 6.13 5.77 L 5.14 6.32 L 5.14 5.23 L 6.13 4.67 Z M 3.88 4.68 L 4.86 5.23 L 4.86 6.32 L 3.88 5.77 Z M 7.62 6.44 C 7.62 6.44 7.62 6.44 7.61 6.44 L 7.61 6.44 L 6.42 5.77 L 6.42 4.43 C 6.42 4.38 6.39 4.34 6.35 4.31 C 6.34 4.31 6.34 4.31 6.34 4.31 L 6.34 4.31 L 5.07 3.6 C 5.03 3.57 4.98 3.57 4.94 3.6 L 3.67 4.31 L 3.67 4.31 C 3.66 4.31 3.66 4.31 3.66 4.31 C 3.62 4.34 3.59 4.38 3.59 4.44 L 3.59 5.77 L 2.39 6.44 L 2.39 6.44 C 2.39 6.44 2.39 6.44 2.39 6.44 C 2.34 6.47 2.32 6.52 2.32 6.57 L 2.32 8.13 C 2.32 8.18 2.34 8.23 2.39 8.25 L 3.66 8.98 L 3.66 8.98 L 3.66 8.98 C 3.68 8.99 3.71 9 3.73 9 C 3.76 9 3.78 8.99 3.8 8.98 L 5 8.29 L 6.21 8.97 L 6.21 8.97 C 6.23 8.98 6.25 8.99 6.28 8.99 C 6.3 8.99 6.32 8.98 6.35 8.97 L 7.61 8.26 C 7.66 8.23 7.69 8.18 7.69 8.13 L 7.69 6.57 C 7.69 6.52 7.66 6.47 7.62 6.44 Z" fill="#ffffff" stroke="none" pointer-events="all" style="fill: light-dark(rgb(255, 255, 255), rgb(18, 18, 18));"/></g></g></g></g></g></svg>