<?xml version="1.0" encoding="UTF-8"?>
<!-- Do not edit this file with editors other than draw.io -->
<!DOCTYPE svg PUBLIC "-//W3C//DTD SVG 1.1//EN" "http://www.w3.org/Graphics/SVG/1.1/DTD/svg11.dtd">
<svg xmlns="http://www.w3.org/2000/svg" style="background: transparent; background-color: transparent; color-scheme: light dark;" xmlns:xlink="http://www.w3.org/1999/xlink" version="1.1" width="9px" height="9px" viewBox="-0.5 -0.5 9 9" content="&lt;mxfile host=&quot;app.diagrams.net&quot; agent=&quot;Mozilla/5.0 (Macintosh; Intel Mac OS X 10_15_7) AppleWebKit/537.36 (KHTML, like Gecko) Chrome/133.0.0.0 Safari/537.36&quot; version=&quot;26.1.0&quot;&gt;&#10;  &lt;diagram name=&quot;Page-1&quot; id=&quot;7R7dXJzzPMxcGD8CXou4&quot;&gt;&#10;    &lt;mxGraphModel dx=&quot;599&quot; dy=&quot;348&quot; grid=&quot;1&quot; gridSize=&quot;10&quot; guides=&quot;1&quot; tooltips=&quot;1&quot; connect=&quot;1&quot; arrows=&quot;1&quot; fold=&quot;1&quot; page=&quot;1&quot; pageScale=&quot;1&quot; pageWidth=&quot;850&quot; pageHeight=&quot;1100&quot; math=&quot;0&quot; shadow=&quot;0&quot;&gt;&#10;      &lt;root&gt;&#10;        &lt;mxCell id=&quot;0&quot; /&gt;&#10;        &lt;mxCell id=&quot;1&quot; parent=&quot;0&quot; /&gt;&#10;        &lt;mxCell id=&quot;6jrlqB9jLRZcqdPse1mh-11&quot; value=&quot;&quot; style=&quot;sketch=0;points=[[0,0,0],[0.25,0,0],[0.5,0,0],[0.75,0,0],[1,0,0],[0,1,0],[0.25,1,0],[0.5,1,0],[0.75,1,0],[1,1,0],[0,0.25,0],[0,0.5,0],[0,0.75,0],[1,0.25,0],[1,0.5,0],[1,0.75,0]];points=[[0,0,0],[0.25,0,0],[0.5,0,0],[0.75,0,0],[1,0,0],[0,1,0],[0.25,1,0],[0.5,1,0],[0.75,1,0],[1,1,0],[0,0.25,0],[0,0.5,0],[0,0.75,0],[1,0.25,0],[1,0.5,0],[1,0.75,0]];outlineConnect=0;fontColor=#232F3E;fillColor=#E7157B;strokeColor=#ffffff;dashed=0;verticalLabelPosition=bottom;verticalAlign=top;align=center;html=1;fontSize=12;fontStyle=0;aspect=fixed;shape=mxgraph.aws4.resourceIcon;resIcon=mxgraph.aws4.cloudwatch_2;&quot; vertex=&quot;1&quot; parent=&quot;1&quot;&gt;&#10;          &lt;mxGeometry x=&quot;280&quot; y=&quot;202&quot; width=&quot;8&quot; height=&quot;8&quot; as=&quot;geometry&quot; /&gt;&#10;        &lt;/mxCell&gt;&#10;      &lt;/root&gt;&#10;    &lt;/mxGraphModel&gt;&#10;  &lt;/diagram&gt;&#10;&lt;/mxfile&gt;&#10;"><defs/><g><g data-cell-id="0"><g data-cell-id="1"><g data-cell-id="6jrlqB9jLRZcqdPse1mh-11"><g><path d="M 0 0 L 8 0 L 8 8 L 0 8 Z" fill="#e7157b" stroke="none" pointer-events="all" style="fill: light-dark(rgb(231, 21, 123), rgb(255, 129, 217));"/><path d="M 5.69 4.84 C 5.69 4.39 5.32 4.03 4.88 4.03 C 4.43 4.03 4.07 4.39 4.07 4.84 C 4.07 5.28 4.43 5.64 4.88 5.64 C 5.32 5.64 5.69 5.28 5.69 4.84 M 5.92 4.84 C 5.92 5.41 5.45 5.87 4.88 5.87 C 4.3 5.87 3.84 5.41 3.84 4.84 C 3.84 4.27 4.3 3.81 4.88 3.81 C 5.45 3.81 5.92 4.27 5.92 4.84 M 6.87 6.39 L 6.08 5.68 C 6.01 5.77 5.94 5.85 5.86 5.92 L 6.65 6.64 C 6.72 6.7 6.82 6.69 6.89 6.62 C 6.95 6.56 6.94 6.45 6.87 6.39 M 4.88 6.07 C 5.56 6.07 6.12 5.52 6.12 4.84 C 6.12 4.16 5.56 3.6 4.88 3.6 C 4.19 3.6 3.63 4.16 3.63 4.84 C 3.63 5.52 4.19 6.07 4.88 6.07 M 7.05 6.78 C 6.98 6.86 6.87 6.9 6.76 6.9 C 6.67 6.9 6.57 6.87 6.5 6.8 L 5.67 6.06 C 5.44 6.21 5.17 6.3 4.88 6.3 C 4.07 6.3 3.41 5.64 3.41 4.84 C 3.41 4.03 4.07 3.37 4.88 3.37 C 5.69 3.37 6.35 4.03 6.35 4.84 C 6.35 5.07 6.29 5.29 6.2 5.48 L 7.03 6.22 C 7.19 6.37 7.2 6.62 7.05 6.78 M 1.85 2.86 C 1.85 2.92 1.86 2.98 1.86 3.04 C 1.87 3.07 1.86 3.1 1.84 3.13 C 1.82 3.15 1.8 3.16 1.77 3.16 C 1.49 3.24 1.03 3.45 1.03 4.11 C 1.03 4.6 1.3 4.87 1.53 5.01 C 1.61 5.06 1.7 5.09 1.8 5.09 L 3.18 5.09 L 3.18 5.32 L 1.8 5.32 C 1.66 5.32 1.52 5.28 1.41 5.21 C 1.18 5.07 0.8 4.74 0.8 4.11 C 0.8 3.35 1.32 3.07 1.63 2.97 C 1.63 2.93 1.63 2.9 1.63 2.86 C 1.63 2.24 2.05 1.6 2.61 1.37 C 3.27 1.1 3.96 1.23 4.47 1.73 C 4.63 1.89 4.76 2.07 4.86 2.29 C 4.99 2.18 5.15 2.12 5.33 2.12 C 5.67 2.12 6.05 2.38 6.12 2.94 C 6.44 3.01 7.11 3.27 7.11 4.12 C 7.11 4.45 7.01 4.73 6.8 4.95 L 6.63 4.79 C 6.8 4.62 6.88 4.39 6.88 4.12 C 6.88 3.37 6.26 3.19 5.99 3.14 C 5.96 3.14 5.93 3.12 5.92 3.1 C 5.9 3.07 5.89 3.04 5.9 3.01 C 5.86 2.55 5.59 2.35 5.33 2.35 C 5.16 2.35 5.01 2.43 4.91 2.56 C 4.88 2.6 4.84 2.61 4.8 2.61 C 4.76 2.6 4.72 2.57 4.71 2.53 C 4.62 2.28 4.48 2.06 4.31 1.89 C 3.87 1.46 3.27 1.34 2.7 1.58 C 2.22 1.77 1.85 2.34 1.85 2.86" fill="#ffffff" stroke="none" pointer-events="all" style="fill: light-dark(rgb(255, 255, 255), rgb(18, 18, 18));"/></g></g></g></g></g></svg>