<?xml version="1.0" encoding="UTF-8"?>
<!-- Do not edit this file with editors other than draw.io -->
<!DOCTYPE svg PUBLIC "-//W3C//DTD SVG 1.1//EN" "http://www.w3.org/Graphics/SVG/1.1/DTD/svg11.dtd">
<svg xmlns="http://www.w3.org/2000/svg" style="background: transparent; background-color: transparent; color-scheme: light dark;" xmlns:xlink="http://www.w3.org/1999/xlink" version="1.1" width="11px" height="11px" viewBox="-0.5 -0.5 11 11" content="&lt;mxfile host=&quot;app.diagrams.net&quot; agent=&quot;Mozilla/5.0 (Macintosh; Intel Mac OS X 10_15_7) AppleWebKit/537.36 (KHTML, like Gecko) Chrome/133.0.0.0 Safari/537.36&quot; version=&quot;26.1.0&quot;&gt;&#10;  &lt;diagram name=&quot;Page-1&quot; id=&quot;7R7dXJzzPMxcGD8CXou4&quot;&gt;&#10;    &lt;mxGraphModel dx=&quot;599&quot; dy=&quot;348&quot; grid=&quot;1&quot; gridSize=&quot;10&quot; guides=&quot;1&quot; tooltips=&quot;1&quot; connect=&quot;1&quot; arrows=&quot;1&quot; fold=&quot;1&quot; page=&quot;1&quot; pageScale=&quot;1&quot; pageWidth=&quot;850&quot; pageHeight=&quot;1100&quot; math=&quot;0&quot; shadow=&quot;0&quot;&gt;&#10;      &lt;root&gt;&#10;        &lt;mxCell id=&quot;0&quot; /&gt;&#10;        &lt;mxCell id=&quot;1&quot; parent=&quot;0&quot; /&gt;&#10;        &lt;mxCell id=&quot;6jrlqB9jLRZcqdPse1mh-10&quot; value=&quot;&quot; style=&quot;outlineConnect=0;dashed=0;verticalLabelPosition=bottom;verticalAlign=top;align=center;html=1;shape=mxgraph.aws3.cloudformation;fillColor=#759C3E;gradientColor=none;&quot; vertex=&quot;1&quot; parent=&quot;1&quot;&gt;&#10;          &lt;mxGeometry x=&quot;450&quot; y=&quot;270&quot; width=&quot;10&quot; height=&quot;10&quot; as=&quot;geometry&quot; /&gt;&#10;        &lt;/mxCell&gt;&#10;      &lt;/root&gt;&#10;    &lt;/mxGraphModel&gt;&#10;  &lt;/diagram&gt;&#10;&lt;/mxfile&gt;&#10;"><defs/><g><g data-cell-id="0"><g data-cell-id="1"><g data-cell-id="6jrlqB9jLRZcqdPse1mh-10"><g><path d="M 3.53 7.08 L 3.53 2.96 L 2.04 3.24 L 2.04 6.77 Z M 6.47 7.08 L 7.97 6.77 L 7.97 3.24 L 6.47 2.96 Z M 5 10 L 0 7.92 L 0 2.07 L 5 0 L 10 2.09 L 10 7.95 Z" fill="#759c3e" stroke="none" pointer-events="all" style="fill: light-dark(rgb(117, 156, 62), rgb(95, 129, 48));"/><path d="M 9.35 6.92 L 7.97 6.77 L 7.97 3.24 L 9.35 3.09 Z M 0.65 6.91 L 3.53 7.63 L 3.53 2.37 L 0.65 3.09 Z M 5 10 L 0 7.92 L 0 2.07 L 5 0 Z" fill-opacity="0.3" fill="#000000" stroke="none" pointer-events="all" style="fill: light-dark(rgb(0, 0, 0), rgb(237, 237, 237));"/><path d="M 6.47 7.64 L 6.47 7.08 L 7.97 6.77 L 9.35 6.92 Z M 3.53 7.63 L 0.65 6.91 L 2.04 6.77 L 3.53 7.08 Z" fill-opacity="0.3" fill="#ffffff" stroke="none" pointer-events="all" style="fill: light-dark(rgb(255, 255, 255), rgb(18, 18, 18));"/><path d="M 6.47 2.96 L 6.47 2.38 L 9.35 3.09 L 7.97 3.24 Z M 2.04 3.24 L 0.65 3.09 L 3.53 2.37 L 3.53 2.96 Z" fill-opacity="0.5" fill="#000000" stroke="none" pointer-events="all" style="fill: light-dark(rgb(0, 0, 0), rgb(237, 237, 237));"/></g></g></g></g></g></svg>