<?xml version="1.0" encoding="UTF-8"?>
<!-- Do not edit this file with editors other than draw.io -->
<!DOCTYPE svg PUBLIC "-//W3C//DTD SVG 1.1//EN" "http://www.w3.org/Graphics/SVG/1.1/DTD/svg11.dtd">
<svg xmlns="http://www.w3.org/2000/svg" style="background: transparent; background-color: transparent; color-scheme: light dark;" xmlns:xlink="http://www.w3.org/1999/xlink" version="1.1" width="22px" height="22px" viewBox="-0.5 -0.5 22 22" content="&lt;mxfile host=&quot;app.diagrams.net&quot; agent=&quot;Mozilla/5.0 (Macintosh; Intel Mac OS X 10_15_7) AppleWebKit/537.36 (KHTML, like Gecko) Chrome/133.0.0.0 Safari/537.36&quot; version=&quot;26.1.0&quot;&gt;&#10;  &lt;diagram name=&quot;Page-1&quot; id=&quot;7R7dXJzzPMxcGD8CXou4&quot;&gt;&#10;    &lt;mxGraphModel dx=&quot;599&quot; dy=&quot;348&quot; grid=&quot;1&quot; gridSize=&quot;10&quot; guides=&quot;1&quot; tooltips=&quot;1&quot; connect=&quot;1&quot; arrows=&quot;1&quot; fold=&quot;1&quot; page=&quot;1&quot; pageScale=&quot;1&quot; pageWidth=&quot;850&quot; pageHeight=&quot;1100&quot; math=&quot;0&quot; shadow=&quot;0&quot;&gt;&#10;      &lt;root&gt;&#10;        &lt;mxCell id=&quot;0&quot; /&gt;&#10;        &lt;mxCell id=&quot;1&quot; parent=&quot;0&quot; /&gt;&#10;        &lt;mxCell id=&quot;6jrlqB9jLRZcqdPse1mh-7&quot; value=&quot;&quot; style=&quot;sketch=0;points=[[0,0,0],[0.25,0,0],[0.5,0,0],[0.75,0,0],[1,0,0],[0,1,0],[0.25,1,0],[0.5,1,0],[0.75,1,0],[1,1,0],[0,0.25,0],[0,0.5,0],[0,0.75,0],[1,0.25,0],[1,0.5,0],[1,0.75,0]];outlineConnect=0;fontColor=#232F3E;fillColor=#ED7100;strokeColor=#ffffff;dashed=0;verticalLabelPosition=bottom;verticalAlign=top;align=center;html=1;fontSize=12;fontStyle=0;aspect=fixed;shape=mxgraph.aws4.resourceIcon;resIcon=mxgraph.aws4.ecs;&quot; vertex=&quot;1&quot; parent=&quot;1&quot;&gt;&#10;          &lt;mxGeometry x=&quot;350&quot; y=&quot;270&quot; width=&quot;20&quot; height=&quot;20&quot; as=&quot;geometry&quot; /&gt;&#10;        &lt;/mxCell&gt;&#10;      &lt;/root&gt;&#10;    &lt;/mxGraphModel&gt;&#10;  &lt;/diagram&gt;&#10;&lt;/mxfile&gt;&#10;"><defs/><g><g data-cell-id="0"><g data-cell-id="1"><g data-cell-id="6jrlqB9jLRZcqdPse1mh-7"><g><path d="M 0 0 L 20 0 L 20 20 L 0 20 Z" fill="#ed7100" stroke="none" pointer-events="all" style="fill: light-dark(rgb(237, 113, 0), rgb(216, 109, 12));"/><path d="M 16.59 12.18 L 14.35 10.83 L 14.35 7.62 C 14.35 7.52 14.29 7.43 14.21 7.38 L 10.98 5.5 L 10.98 2.78 L 16.59 6.1 Z M 17.01 5.7 L 10.84 2.05 C 10.76 2 10.65 2 10.56 2.05 C 10.47 2.1 10.42 2.19 10.42 2.29 L 10.42 5.66 C 10.42 5.76 10.47 5.85 10.56 5.9 L 13.79 7.78 L 13.79 10.99 C 13.79 11.09 13.84 11.18 13.92 11.23 L 16.73 12.91 C 16.77 12.94 16.82 12.95 16.87 12.95 C 16.92 12.95 16.97 12.94 17.01 12.91 C 17.1 12.87 17.15 12.77 17.15 12.67 L 17.15 5.94 C 17.15 5.84 17.1 5.75 17.01 5.7 Z M 9.98 17.4 L 3.41 13.9 L 3.41 6.1 L 9.02 2.78 L 9.02 5.51 L 6.06 7.39 C 5.98 7.44 5.93 7.53 5.93 7.62 L 5.93 12.39 C 5.93 12.5 5.99 12.59 6.08 12.64 L 9.86 14.6 C 9.94 14.64 10.03 14.64 10.12 14.6 L 13.78 12.71 L 16.03 14.06 Z M 16.74 13.83 L 13.93 12.15 C 13.85 12.1 13.74 12.1 13.66 12.14 L 9.99 14.04 L 6.49 12.22 L 6.49 7.78 L 9.45 5.9 C 9.53 5.84 9.58 5.76 9.58 5.66 L 9.58 2.29 C 9.58 2.19 9.53 2.1 9.44 2.05 C 9.35 2 9.24 2 9.16 2.05 L 2.99 5.7 C 2.9 5.75 2.85 5.84 2.85 5.94 L 2.85 14.07 C 2.85 14.18 2.91 14.27 3 14.32 L 9.86 17.97 C 9.9 17.99 9.94 18 9.99 18 C 10.03 18 10.08 17.99 10.12 17.96 L 16.73 14.32 C 16.81 14.27 16.87 14.18 16.87 14.08 C 16.87 13.98 16.82 13.88 16.74 13.83 Z" fill="#ffffff" stroke="none" pointer-events="all" style="fill: light-dark(rgb(255, 255, 255), rgb(18, 18, 18));"/></g></g></g></g></g></svg>