<?xml version="1.0" encoding="UTF-8"?>
<!-- Do not edit this file with editors other than draw.io -->
<!DOCTYPE svg PUBLIC "-//W3C//DTD SVG 1.1//EN" "http://www.w3.org/Graphics/SVG/1.1/DTD/svg11.dtd">
<svg xmlns="http://www.w3.org/2000/svg" style="background: transparent; background-color: transparent; color-scheme: light dark;" xmlns:xlink="http://www.w3.org/1999/xlink" version="1.1" width="9px" height="9px" viewBox="-0.5 -0.5 9 9" content="&lt;mxfile host=&quot;app.diagrams.net&quot; agent=&quot;Mozilla/5.0 (Macintosh; Intel Mac OS X 10_15_7) AppleWebKit/537.36 (KHTML, like Gecko) Chrome/133.0.0.0 Safari/537.36&quot; version=&quot;26.1.0&quot;&gt;&#10;  &lt;diagram name=&quot;Page-1&quot; id=&quot;7R7dXJzzPMxcGD8CXou4&quot;&gt;&#10;    &lt;mxGraphModel dx=&quot;599&quot; dy=&quot;348&quot; grid=&quot;1&quot; gridSize=&quot;10&quot; guides=&quot;1&quot; tooltips=&quot;1&quot; connect=&quot;1&quot; arrows=&quot;1&quot; fold=&quot;1&quot; page=&quot;1&quot; pageScale=&quot;1&quot; pageWidth=&quot;850&quot; pageHeight=&quot;1100&quot; math=&quot;0&quot; shadow=&quot;0&quot;&gt;&#10;      &lt;root&gt;&#10;        &lt;mxCell id=&quot;0&quot; /&gt;&#10;        &lt;mxCell id=&quot;1&quot; parent=&quot;0&quot; /&gt;&#10;        &lt;mxCell id=&quot;6jrlqB9jLRZcqdPse1mh-8&quot; value=&quot;&quot; style=&quot;sketch=0;points=[[0,0,0],[0.25,0,0],[0.5,0,0],[0.75,0,0],[1,0,0],[0,1,0],[0.25,1,0],[0.5,1,0],[0.75,1,0],[1,1,0],[0,0.25,0],[0,0.5,0],[0,0.75,0],[1,0.25,0],[1,0.5,0],[1,0.75,0]];outlineConnect=0;fontColor=#232F3E;fillColor=#ED7100;strokeColor=#ffffff;dashed=0;verticalLabelPosition=bottom;verticalAlign=top;align=center;html=1;fontSize=12;fontStyle=0;aspect=fixed;shape=mxgraph.aws4.resourceIcon;resIcon=mxgraph.aws4.eks;&quot; vertex=&quot;1&quot; parent=&quot;1&quot;&gt;&#10;          &lt;mxGeometry x=&quot;140&quot; y=&quot;212&quot; width=&quot;8&quot; height=&quot;8&quot; as=&quot;geometry&quot; /&gt;&#10;        &lt;/mxCell&gt;&#10;      &lt;/root&gt;&#10;    &lt;/mxGraphModel&gt;&#10;  &lt;/diagram&gt;&#10;&lt;/mxfile&gt;&#10;"><defs/><g><g data-cell-id="0"><g data-cell-id="1"><g data-cell-id="6jrlqB9jLRZcqdPse1mh-8"><g><path d="M 0 0 L 8 0 L 8 8 L 0 8 Z" fill="#ed7100" stroke="none" pointer-events="all" style="fill: light-dark(rgb(237, 113, 0), rgb(216, 109, 12));"/><path d="M 4.71 3.07 L 3.95 3.96 L 4.78 4.93 L 4.47 4.93 L 3.72 4.06 L 3.72 4.96 L 3.5 4.96 L 3.5 3.05 L 3.72 3.05 L 3.72 3.83 L 4.41 3.07 Z M 6.64 4.87 L 5.74 4.33 L 5.74 3.05 C 5.74 3.01 5.72 2.97 5.68 2.95 L 4.39 2.2 L 4.39 1.11 L 6.64 2.44 Z M 6.81 2.28 L 4.34 0.82 C 4.3 0.8 4.26 0.8 4.22 0.82 C 4.19 0.84 4.17 0.88 4.17 0.92 L 4.17 2.26 C 4.17 2.3 4.19 2.34 4.22 2.36 L 5.51 3.11 L 5.51 4.4 C 5.51 4.43 5.54 4.47 5.57 4.49 L 6.69 5.16 C 6.71 5.18 6.73 5.18 6.75 5.18 C 6.77 5.18 6.79 5.18 6.8 5.17 C 6.84 5.15 6.86 5.11 6.86 5.07 L 6.86 2.38 C 6.86 2.34 6.84 2.3 6.81 2.28 Z M 3.99 6.96 L 1.36 5.56 L 1.36 2.44 L 3.61 1.11 L 3.61 2.2 L 2.43 2.95 C 2.39 2.97 2.37 3.01 2.37 3.05 L 2.37 4.96 C 2.37 5 2.4 5.04 2.43 5.06 L 3.94 5.84 C 3.98 5.86 4.01 5.86 4.05 5.84 L 5.51 5.08 L 6.41 5.63 Z M 6.69 5.53 L 5.57 4.86 C 5.54 4.84 5.5 4.84 5.46 4.86 L 3.99 5.62 L 2.6 4.89 L 2.6 3.11 L 3.78 2.36 C 3.81 2.34 3.83 2.3 3.83 2.26 L 3.83 0.92 C 3.83 0.88 3.81 0.84 3.78 0.82 C 3.74 0.8 3.7 0.8 3.66 0.82 L 1.19 2.28 C 1.16 2.3 1.14 2.34 1.14 2.38 L 1.14 5.63 C 1.14 5.67 1.16 5.71 1.2 5.73 L 3.94 7.19 C 3.96 7.2 3.98 7.2 3.99 7.2 C 4.01 7.2 4.03 7.2 4.05 7.19 L 6.69 5.73 C 6.73 5.71 6.75 5.67 6.75 5.63 C 6.75 5.59 6.73 5.55 6.69 5.53 Z" fill="#ffffff" stroke="none" pointer-events="all" style="fill: light-dark(rgb(255, 255, 255), rgb(18, 18, 18));"/></g></g></g></g></g></svg>